<svg xmlns="http://www.w3.org/2000/svg" width="597" height="434" viewBox="0 0 597 434"><defs><clipPath id="a"><path transform="translate(0 2568)" fill="#1e003d" d="M0 0h597v434H0z"/></clipPath></defs><g transform="translate(0 -2568)" clip-path="url(#a)"><path d="M-250.251 1906.383a6.629 6.629 0 0 0-11.74 5.751l-374.755 270.554a2.205 2.205 0 0 0-.916 1.791v126.953l-165.119 119.963a2.21 2.21 0 0 0 2.6 3.576l166.025-120.624a2.214 2.214 0 0 0 .91-1.788v-126.95l373.839-269.893a6.629 6.629 0 0 0 9.154-9.333z" fill="#0a41aa"/><path d="M-695.765 2229.547a6.629 6.629 0 0 0-11.722 5.787l-155.6 113.049a2.21 2.21 0 0 0 2.6 3.576l155.6-113.051a6.629 6.629 0 0 0 9.126-9.361z" fill="#00d9d3"/><path d="M111.658 1769.753a6.63 6.63 0 0 0-11.724 5.785l-261.313 189.856a2.207 2.207 0 0 0-.912 1.788v125.7l-138.9 100.922v-122.5a2.209 2.209 0 0 0-3.508-1.788l-248.01 180.195a2.21 2.21 0 0 0 2.6 3.576l244.5-177.64v122.5a2.209 2.209 0 0 0 3.508 1.788l143.323-104.131a2.212 2.212 0 0 0 .91-1.788v-125.709l260.4-189.193a6.629 6.629 0 0 0 9.125-9.361z" fill="#0064ff"/><path d="M51.345 1686.74a6.63 6.63 0 0 0-11.724 5.785l-261.584 190.053a2.214 2.214 0 0 0-.91 1.788v125.143l-50.708 37.4a2.21 2.21 0 0 0 2.625 3.557l51.6-38.067a2.205 2.205 0 0 0 .9-1.778v-125.129L42.22 1696.101a6.629 6.629 0 0 0 9.125-9.361z" fill="#fd0"/><path d="M-352.747 2233.992a6.63 6.63 0 0 0-11.724 5.785l-294.986 214.319a2.215 2.215 0 0 0-.91 1.788v125.705l-21.79 15.828a2.21 2.21 0 0 0 2.6 3.576l22.7-16.494a2.208 2.208 0 0 0 .912-1.788v-125.7l294.073-213.658a6.629 6.629 0 0 0 9.126-9.362z" fill="#0a41aa"/><path d="M-348.807 2357.96a6.629 6.629 0 0 0-11.722 5.785l-238.612 173.363a2.21 2.21 0 0 0 2.6 3.575l238.613-173.362a6.629 6.629 0 0 0 9.124-9.361z" fill="#0064ff"/><path d="M292.593 2018.789a6.629 6.629 0 0 0-11.7 5.829L68.468 2180.124v-123.723a2.21 2.21 0 0 0-3.508-1.788l-368.656 267.841a2.209 2.209 0 0 0 1.3 4 2.189 2.189 0 0 0 1.3-.421l365.144-265.297v123.744a2.208 2.208 0 0 0 3.514 1.782l215.941-158.079a6.629 6.629 0 0 0 9.09-9.394z" fill="#00d9d3"/><path d="M171.97 1852.763a6.63 6.63 0 0 0-11.724 5.785l-279.964 203.406a2.21 2.21 0 0 0 2.6 3.576l279.964-203.406a6.63 6.63 0 0 0 9.126-9.361z" fill="#fd0"/><path d="M232.28 1935.78a6.629 6.629 0 0 0-11.722 5.785l-110.2 80.067a2.21 2.21 0 0 0 2.6 3.575l110.2-80.066a6.629 6.629 0 0 0 9.124-9.361z" fill="#0064ff"/><path d="M20.855 2343.048a6.629 6.629 0 0 0-11.722 5.785l-253.62 184.268v-123.068a2.207 2.207 0 0 0-3.5-1.789l-147.511 106.494a2.207 2.207 0 0 0-.916 1.791v126.953l-165.119 119.963a2.21 2.21 0 0 0 2.6 3.576l166.024-120.624a2.209 2.209 0 0 0 .912-1.788V2517.66l143.091-103.307v123.084a2.209 2.209 0 0 0 3.508 1.788L11.73 2352.409a6.628 6.628 0 0 0 9.124-9.361z" fill="#00d9d3"/><path d="M26.776 2211.917a6.63 6.63 0 0 0-11.724 5.785l-227.9 165.581a2.21 2.21 0 0 0 2.6 3.576l227.9-165.58a6.63 6.63 0 0 0 9.126-9.361zm-471.071 342.251a6.63 6.63 0 0 0-11.724 5.785l-165.823 120.479a2.21 2.21 0 0 0 2.6 3.576l165.824-120.478a6.629 6.629 0 0 0 9.126-9.361zm797.2-452.366a6.629 6.629 0 0 0-11.722 5.785l-295.23 214.5a2.21 2.21 0 0 0 2.6 3.574l295.23-214.5a6.628 6.628 0 0 0 9.124-9.36zm120.624 166.023a6.629 6.629 0 0 0-11.722 5.785L166.39 2488.244v-122.5a2.209 2.209 0 0 0-3.508-1.788l-249.038 180.942a2.21 2.21 0 1 0 2.6 3.575l245.53-178.388v122.5a2.21 2.21 0 0 0 3.508 1.788l298.925-217.182a6.629 6.629 0 0 0 9.124-9.361zm-591.948 303.244a6.629 6.629 0 0 0-11.722 5.787l-114.983 83.54a2.209 2.209 0 0 0-.91 1.787v125.706l-194.875 141.581a2.21 2.21 0 0 0 2.6 3.576l195.779-142.242a2.211 2.211 0 0 0 .912-1.788v-125.707l114.073-82.879a6.629 6.629 0 0 0 9.124-9.361zm-162.619 118.151a6.629 6.629 0 0 0-11.722 5.785l-208.458 151.454a2.21 2.21 0 1 0 2.6 3.575l208.457-151.452a6.629 6.629 0 0 0 9.124-9.361zm2.025-128.305a6.629 6.629 0 0 0-11.722 5.787l-70.08 50.915a2.21 2.21 0 1 0 2.6 3.575l70.08-50.914a6.63 6.63 0 0 0 9.124-9.363z" fill="#0064ff"/><path d="M298.961 2267.825a6.63 6.63 0 0 0-11.724 5.785l-90.761 65.943a2.21 2.21 0 0 0 2.6 3.576l90.763-65.943a6.629 6.629 0 0 0 9.126-9.361z" fill="#0a41aa"/><path d="M413.217 2184.812a6.629 6.629 0 0 0-11.722 5.787l-72.588 52.739a2.21 2.21 0 1 0 2.6 3.574l72.589-52.739a6.629 6.629 0 0 0 9.124-9.361z" fill="#0064ff"/><path d="M155.384 2625.802a6.629 6.629 0 0 0-11.722 5.787L19.17 2722.04v-122.5a2.209 2.209 0 0 0-3.508-1.788l-228.513 166.027a2.21 2.21 0 0 0 2.6 3.576l225.006-163.476v122.495a2.21 2.21 0 0 0 3.508 1.786l128-93a6.629 6.629 0 0 0 9.126-9.361z" fill="#fd0"/><path d="M-318.984 3099.491a2.209 2.209 0 0 1-1.3-4l87.145-63.317v-125.701a2.211 2.211 0 0 1 .91-1.788l215.179-156.337a2.21 2.21 0 0 1 2.6 3.576l-214.267 155.674v125.707a2.212 2.212 0 0 1-.91 1.788l-88.057 63.977a2.195 2.195 0 0 1-1.3.421z" fill="#0064ff"/><path d="M-19.922 2744.957a6.645 6.645 0 1 1-1.47 9.282 6.647 6.647 0 0 1 1.47-9.282zm-249.764 189.678a6.63 6.63 0 0 0-11.724 5.785l-99.183 72.061a2.21 2.21 0 0 0 2.6 3.576l99.183-72.061a6.629 6.629 0 0 0 9.126-9.361z" fill="#0064ff"/><path d="M533.841 2350.838a6.629 6.629 0 0 0-11.722 5.785l-94.831 68.9a2.21 2.21 0 0 0-.91 1.788v125.726l-82.6 61.952v-124.461a2.208 2.208 0 0 0-3.507-1.788L190.23 2597.751a2.21 2.21 0 0 0 2.6 3.576l146.531-106.463v124.539a2.209 2.209 0 0 0 3.535 1.767l87.017-65.265a2.208 2.208 0 0 0 .884-1.768v-125.702l93.92-68.236a6.629 6.629 0 0 0 9.124-9.361z" fill="#00d9d3"/><path d="M47.247 2831.197a6.629 6.629 0 0 0-11.722 5.787l-234.849 170.631a2.21 2.21 0 0 0 2.6 3.574l234.852-170.631a6.629 6.629 0 0 0 9.125-9.361z" fill="#0064ff"/><path d="M131.218 2516.529a6.629 6.629 0 0 0-11.722 5.786l-69.784 50.7a2.21 2.21 0 0 0 2.6 3.575l69.782-50.7a6.629 6.629 0 0 0 9.126-9.362z" fill="#0a41aa"/><path d="M322.416 2758.11a6.629 6.629 0 0 0-11.724 5.784l-130.766 94.948v-122.5a2.208 2.208 0 0 0-3.508-1.787l-96.8 70.393a2.21 2.21 0 0 0 2.6 3.573l93.292-67.843v122.493a2.2 2.2 0 0 0 1.206 1.967 2.177 2.177 0 0 0 1 .242 2.2 2.2 0 0 0 1.3-.421l134.274-97.495a6.629 6.629 0 0 0 9.127-9.358zm-13.559-116.98a6.629 6.629 0 0 0-11.722 5.786l-73.933 53.714a2.21 2.21 0 0 0 2.6 3.576l73.934-53.715a6.629 6.629 0 0 0 9.124-9.361zm285.296-207.28a6.628 6.628 0 0 0-11.722 5.785l-128.34 93.244a2.21 2.21 0 0 0 2.6 3.574l128.34-93.244a6.628 6.628 0 0 0 9.124-9.36z" fill="#0064ff"/><path d="M134.024 2894.458a6.629 6.629 0 0 0-11.746 5.738l-155.9 112.281a2.211 2.211 0 0 0-.918 1.792v127.287l-165.12 119.962a2.21 2.21 0 0 0 2.6 3.576l166.025-120.623a2.213 2.213 0 0 0 .91-1.788v-127.281l154.984-111.621a6.63 6.63 0 0 0 9.165-9.323z" fill="#00d9d3"/><path d="M-67.987 3041.754a6.629 6.629 0 0 0-11.722 5.786l-180.26 130.966a2.21 2.21 0 0 0 2.6 3.576l180.26-130.968a6.629 6.629 0 0 0 9.124-9.361zm722.452-524.892a6.629 6.629 0 0 0-11.722 5.787L498.52 2627.433a2.21 2.21 0 0 0-.91 1.788v125.7l-136.214 98.966v-122.5a2.209 2.209 0 0 0-4.418 0v126.84a2.21 2.21 0 0 0 3.508 1.788l140.632-102.176a2.212 2.212 0 0 0 .91-1.788v-125.705l143.313-104.119a6.629 6.629 0 0 0 9.124-9.361z" fill="#0064ff"/><path d="M466.578 2653.371a6.629 6.629 0 0 0-11.724 5.784l-67.174 48.807a2.21 2.21 0 0 0 2.6 3.574l67.174-48.8a6.629 6.629 0 0 0 9.126-9.36z" fill="#fd0"/></g></svg>